<svg xmlns:xlink="http://www.w3.org/1999/xlink" width="1019.9016839999996" xmlns="http://www.w3.org/2000/svg" height="129.98144353000012" id="screenshot-f8589560-8ee6-11ec-8798-cfdad16c8e40" viewBox="0.049158000000147695 0 1019.9016839999996 129.98144353000012" style="-webkit-print-color-adjust: exact;" fill="none" version="1.1"><g id="shape-f8589560-8ee6-11ec-8798-cfdad16c8e40" width="297mm" version="1.1" height="210mm" rx="0" ry="0" style="fill: rgb(0, 0, 0);"><g id="shape-f8589561-8ee6-11ec-8798-cfdad16c8e40" rx="0" ry="0" style="display: inline; fill: rgb(0, 0, 0);"><g id="shape-f8589562-8ee6-11ec-8798-cfdad16c8e40" rx="0" ry="0" style="font-size: 192px; line-height: 1.25; font-family: Blinker; fill: rgb(0, 0, 0);"><g id="shape-f8589563-8ee6-11ec-8798-cfdad16c8e40"><g id="fills-f8589563-8ee6-11ec-8798-cfdad16c8e40"><path rx="0" ry="0" d="M29.809158000000195,93.88800000000003L29.809158000000195,127.68000000000006L0.049158000000147695,127.68000000000006L0.049158000000147695,7.295999999999992L44.017162000000155,7.295999999999992C62.57716200000016,7.295999999999992,75.76116200000013,10.560000000000002,83.56916200000012,17.087999999999965C91.37716200000011,23.488000000000056,95.28116200000011,34.303999999999974,95.28116200000011,49.535999999999945C95.28116200000011,64.63999999999999,91.12116200000014,75.84000000000003,82.8011620000002,83.13599999999997C74.60916200000008,90.30399999999997,61.87316200000021,93.88800000000003,44.59316200000018,93.88800000000003ZM65.1371620000001,49.53600000000006C65.1371620000001,43.90400000000011,63.60116200000016,39.93600000000015,60.529162000000156,37.63200000000006C57.45716200000015,35.32800000000009,51.953162000000134,34.176000000000045,44.017162000000155,34.176000000000045L29.809158000000195,34.176000000000045L29.809158000000195,67.77600000000007L44.01716200000021,67.77600000000007C52.08116200000018,67.77600000000007,57.585162000000196,66.43200000000013,60.529162000000156,63.74400000000014C63.60116200000016,61.056000000000154,65.13716200000022,56.320000000000164,65.1371620000001,49.53600000000006ZZ" style="font-weight: bold; fill: rgb(216, 71, 18); fill-opacity: 1;"/></g></g><g id="shape-f8589564-8ee6-11ec-8798-cfdad16c8e40"><g id="fills-f8589564-8ee6-11ec-8798-cfdad16c8e40"><path rx="0" ry="0" d="M238.89660200000014,90.81600000000003L238.89660200000014,127.68000000000006L210.0966020000002,127.68000000000006L210.0966020000002,0L238.89660200000014,0L238.89660200000014,68.54399999999998L243.3126020000002,68.54399999999998L267.3126020000002,32.831999999999994L301.48860200000024,32.831999999999994L268.0806020000001,78.52800000000002L303.4086020000001,127.67999999999995L268.2726020000001,127.67999999999995L243.31260200000008,90.81600000000003Z" style="font-weight: bold; fill: rgb(216, 71, 18); fill-opacity: 1;"/></g></g><g id="shape-f8589565-8ee6-11ec-8798-cfdad16c8e40"><g id="fills-f8589565-8ee6-11ec-8798-cfdad16c8e40"><path rx="0" ry="0" d="M382.3204020000002,99.64800000000002L382.3204020000002,122.4960000000001C379.2484020000003,124.41600000000005,374.0644020000002,126.08000000000004,366.76840200000026,127.48800000000006C359.4724020000002,128.89600000000007,351.79240200000015,129.60000000000014,343.7284020000002,129.60000000000014C328.3684020000002,129.60000000000014,317.29640200000017,125.7600000000001,310.5124020000002,118.08000000000015C303.7284020000002,110.27200000000016,300.33640200000025,97.6640000000001,300.33640200000025,80.25600000000009C300.33640200000025,63.232000000000085,303.9204020000002,50.752000000000066,311.0884020000002,42.816000000000145C318.2564020000002,34.88000000000011,329.5844020000002,30.91200000000015,345.0724020000001,30.91200000000015C360.17640200000017,30.91200000000015,370.8004020000002,33.92000000000007,376.9444020000002,39.93600000000015C383.21640200000013,45.82400000000007,386.3524020000002,56.320000000000164,386.3524020000002,71.42400000000009C386.3524020000002,75.5200000000001,386.28840200000025,78.7840000000001,386.1604020000002,81.21600000000012C386.03240200000016,83.64800000000014,385.7764020000002,86.46400000000006,385.3924020000003,89.6640000000001L329.3284020000002,89.6640000000001C329.45640200000014,94.91200000000003,330.86440200000027,98.56000000000006,333.55240200000014,100.60800000000006C336.24040200000024,102.65600000000006,341.1684020000001,103.68000000000006,348.33640200000025,103.68000000000006C354.48040200000025,103.68000000000006,360.7524020000002,103.29600000000005,367.15240200000017,102.52800000000013C373.55240200000014,101.63200000000006,378.6084020000002,100.67200000000014,382.3204020000002,99.64800000000002ZZM345.07240200000024,55.488000000000056C338.92840200000023,55.488000000000056,334.76840200000026,56.57600000000002,332.5924020000002,58.752000000000066C330.4164020000002,60.80000000000007,329.3284020000002,64.89600000000007,329.3284020000002,71.04000000000008L360.24040200000024,71.04000000000008L360.24040200000024,66.81600000000003C360.1124020000002,62.33600000000001,359.0244020000001,59.32800000000009,356.9764020000001,57.79200000000003C355.05640200000016,56.256000000000085,351.0884020000002,55.488000000000056,345.07240200000024,55.488000000000056ZZ" style="font-weight: bold; fill: rgb(216, 71, 18); fill-opacity: 1;"/></g></g><g id="shape-f8589566-8ee6-11ec-8798-cfdad16c8e40"><g id="fills-f8589566-8ee6-11ec-8798-cfdad16c8e40"><path rx="0" ry="0" d="M428.4001420000002,127.68000000000006L399.6001420000001,127.68000000000006L399.6001420000001,32.831999999999994L426.4801420000002,32.831999999999994L427.44014200000015,40.12800000000004L427.82414200000017,40.12800000000004C432.4321420000002,37.31200000000001,437.10414200000014,35.200000000000045,441.8401420000001,33.79200000000003C446.70414200000016,32.25599999999997,451.24814200000026,31.488000000000056,455.4721420000002,31.488000000000056L457.008142,31.488000000000056L457.008142,59.327999999999975C455.8561420000002,59.072,454.576142,58.94399999999996,453.1681420000001,58.94399999999996C451.88814200000013,58.81600000000003,450.22414200000014,58.75199999999995,448.176142,58.75199999999995C444.46414200000004,58.75199999999995,440.94414200000006,59.007999999999925,437.61614199999997,59.51999999999998C434.288142,59.903999999999996,431.216142,60.54399999999998,428.4001420000001,61.43999999999994Z" style="font-weight: bold; fill: rgb(216, 71, 18); fill-opacity: 1;"/></g></g><g id="shape-f8589567-8ee6-11ec-8798-cfdad16c8e40"><g id="fills-f8589567-8ee6-11ec-8798-cfdad16c8e40"><path rx="0" ry="0" d="M617.711832,7.295999999999992L617.711832,127.68000000000006L589.8718320000003,127.68000000000006L589.8718320000003,55.488000000000056L569.3278320000002,104.63999999999999L545.1358320000002,104.63999999999999L524.9758320000002,55.488000000000056L524.9758320000002,127.68000000000006L497.13583200000016,127.68000000000006L497.13583200000016,7.295999999999992L533.4238320000002,7.295999999999992L557.8078320000002,67.96800000000007L582.767832,7.295999999999992Z" style="font-weight: bold;"/></g></g><g id="shape-f8589568-8ee6-11ec-8798-cfdad16c8e40"><g id="fills-f8589568-8ee6-11ec-8798-cfdad16c8e40"><path rx="0" ry="0" d="M870.5749519999999,127.68000000000006L841.7749520000002,127.68000000000006L841.7749520000002,32.831999999999994L866.7349520000002,32.831999999999994L867.8869520000003,42.81600000000003L868.4629520000003,42.81600000000003C872.5589520000003,38.591999999999985,876.9749520000005,35.583999999999946,881.7109520000004,33.79200000000003C886.5749520000004,31.871999999999957,892.3989520000005,30.912000000000035,899.1829520000001,30.912000000000035C909.9349520000005,30.912000000000035,918.0629520000002,33.53600000000006,923.5669520000001,38.78399999999999C929.0709520000005,44.03200000000004,931.8229520000004,51.77600000000007,931.8229520000004,62.016000000000076L931.8229520000004,127.68000000000006L903.0229520000003,127.68000000000006L903.0229520000003,65.856C903.0229520000003,62.912000000000035,901.8069520000004,60.672000000000025,899.3749520000001,59.13599999999997C897.0709520000005,57.60000000000002,893.6149520000004,56.831999999999994,889.0069520000002,56.831999999999994C885.550952,56.831999999999994,882.2229520000001,57.21600000000001,879.0229520000003,57.98400000000004C875.8229520000004,58.75199999999995,873.0069520000002,59.84000000000003,870.5749520000004,61.24800000000005Z" style="font-weight: bold;"/></g></g><g id="shape-f858bc70-8ee6-11ec-8798-cfdad16c8e40"><g id="fills-f858bc70-8ee6-11ec-8798-cfdad16c8e40"><path rx="0" ry="0" d="M986.5428420000003,55.29600000000005C981.1668420000001,55.29600000000005,977.518842,55.74400000000003,975.5988420000003,56.639999999999986C973.806842,57.408000000000015,972.9108420000002,59.26400000000001,972.9108420000002,62.20799999999997C972.9108420000002,63.360000000000014,973.2308419999999,64.32000000000005,973.8708420000003,65.08799999999997C974.6388420000003,65.72799999999995,975.6628420000002,66.11199999999997,976.9428419999999,66.24000000000001L999.7908419999999,69.31200000000001C1007.2148419999999,70.33600000000001,1012.3988420000001,72.76800000000003,1015.342842,76.60799999999995C1018.4148419999997,80.31999999999994,1019.9508419999997,86.27199999999993,1019.9508419999997,94.46399999999994C1019.9508419999997,106.75199999999995,1017.1988419999998,115.71199999999999,1011.6948419999999,121.34399999999994C1006.1908419999995,126.84799999999996,996.5908419999996,129.60000000000002,982.8948419999997,129.60000000000002C975.342842,129.60000000000002,968.4948420000001,129.27999999999997,962.3508419999998,128.64C956.3348419999998,128.12800000000004,951.2148419999999,127.36000000000001,946.9908419999997,126.33600000000001L946.9908419999997,101.37600000000009C950.1908419999995,102.144,954.6068419999997,102.84800000000007,960.2388419999997,103.48800000000006C965.998842,104.00000000000011,971.822842,104.25600000000009,977.710842,104.25600000000009C982.958842,104.25600000000009,986.478842,103.74400000000003,988.2708419999999,102.72000000000003C990.190842,101.5680000000001,991.150842,99.45600000000002,991.150842,96.38400000000001C991.150842,95.36000000000001,990.8308419999998,94.52800000000002,990.190842,93.88800000000003C989.5508419999996,93.12000000000012,988.7188419999998,92.67200000000003,987.6948419999999,92.5440000000001L964.0788419999999,89.4720000000001C957.1668419999996,88.57600000000002,952.1108419999996,86.08000000000004,948.9108419999998,81.98400000000004C945.8388419999997,77.7600000000001,944.3028419999996,71.55200000000002,944.3028419999996,63.360000000000014C944.3028419999996,52.60800000000006,947.6948419999999,44.544000000000096,954.478842,39.168000000000006C961.2628419999996,33.66399999999999,971.3108419999999,30.912000000000035,984.6228419999998,30.912000000000035C989.8708419999998,30.912000000000035,994.7348419999998,31.039999999999964,999.2148419999999,31.29600000000005C1003.6948419999999,31.55200000000002,1008.4308420000002,32.06400000000008,1013.422842,32.831999999999994L1013.422842,56.831999999999994C1010.2228420000001,56.32000000000005,1006.2548420000003,55.936000000000035,1001.518842,55.680000000000064C996.7828420000001,55.42399999999998,991.7908419999999,55.29600000000005,986.5428420000003,55.29600000000005ZZ" style="font-weight: bold;"/></g></g></g></g><g id="shape-f858bc71-8ee6-11ec-8798-cfdad16c8e40" rx="0" ry="0" style="display: inline; fill: rgb(0, 0, 0);"><g id="shape-f858bc72-8ee6-11ec-8798-cfdad16c8e40" rx="0" ry="0" style="fill: rgb(0, 0, 0);"><g id="shape-f858bc73-8ee6-11ec-8798-cfdad16c8e40"><g id="fills-f858bc73-8ee6-11ec-8798-cfdad16c8e40"><ellipse rx="49.5" ry="49.5" cx="677.192254" cy="80.44505228469757" transform="matrix(1,0,0,1,0,0)" style="display: inline; stroke: none; stroke-opacity: 1; fill: rgb(255, 255, 255); fill-opacity: 1;"/></g><g id="strokes-f858bc73-8ee6-11ec-8798-cfdad16c8e40"><g class="stroke-shape"><ellipse rx="49.5" ry="49.5" cx="677.192254" cy="80.44505228469757" transform="matrix(1,0,0,1,0,0)" style="display: inline; stroke: none; stroke-opacity: 1; fill: none; stroke-width: 0.822641;"/></g></g></g><g id="shape-f858bc74-8ee6-11ec-8798-cfdad16c8e40"><g id="fills-f858bc74-8ee6-11ec-8798-cfdad16c8e40"><path rx="0" ry="0" d="M689.0144146000002,32.5856610300001L686.1706646000002,43.58956103000003L686.0573846000002,43.558361030000015C683.2160946000004,42.84172103000003,680.2857246000003,42.45723103,677.3581646000002,42.41578103000006L677.3561646000003,42.413781029999996L677.3541646000003,42.413781029999996C673.7285946000002,42.36098103000006,670.0810646000004,42.838751030000026,666.5768246000002,43.81612102999998L663.5201846000004,32.85714102999998C655.2021846000002,35.186321030000045,647.6415446000001,39.651181029999975,641.5924446000004,45.80636103000006L649.6666646000003,53.757531029999996C646.9910246000004,56.47439102999999,644.7200146000005,59.60810103000006,642.9674446000004,62.999721030000046C641.6836846000001,65.48370103000002,640.6731846000002,68.11077103000002,639.9674446000004,70.80636103000006L628.9654946000005,67.92550103000008C627.8806346000001,71.97172103000003,627.3168446000004,76.13939103000007,627.2877546000004,80.32784103000006C627.3055546000005,84.75117103000002,627.9198446000005,89.15199102999998,629.1139346000004,93.41183103000003L640.0983046000006,90.40597103000005C640.8779246000004,93.25244103,641.9916246000003,96.01180103000002,643.4088546000003,98.59542103000001C645.1624646000005,101.79386103000002,647.3950846000002,104.74464103000003,649.9967446000005,107.30245103000004L642.0885346000005,115.34542103000001C648.2238046000002,121.3961810300001,655.8395646000004,125.73870103000002,664.1783846000003,127.94112103000009L667.0572946000002,117.00362103000009C670.6143546000003,117.93994103000011,674.3208346000006,118.35355103000006,677.9967446000005,118.22237103000009L677.9987446000005,118.22037103000002C680.9190946000003,118.11697103000006,683.8363046000004,117.67291103000002,686.6628046000001,116.90396103L689.6413246000002,127.84928103000004C697.9625746000002,125.56630102999998,705.5395046000003,121.14821102999997,711.6178846000003,115.03482102999999L703.6393746000003,107.06998103000001C705.3183446000003,105.38813103000007,706.8404846000003,103.54154103000008,708.1803846000003,101.56803103000004C710.5558546000002,98.06978103000006,712.3500246000003,94.16137103000005,713.4460146000001,90.08561103L724.3678846000003,93.02115103000006C725.4986846000002,88.88356103000001,726.0837046000001,84.61643103000006,726.1081246000003,80.32779103000007C726.1031246000002,75.80099103000009,725.4735646000004,71.2964410300001,724.2370246,66.94107102999999L713.3171046000002,70.01725103000001C713.1848946,69.54778103000001,713.0431346,69.08069103000003,712.8932746,68.61686103L712.8932746,68.61486103000004C711.8741246000004,65.45803103000003,710.4356646000001,62.433381029999964,708.6315546000001,59.65978102999998L708.6295546000001,59.65978102999998L708.6295546000001,59.657781030000024C707.1039246000005,57.310931030000006,705.3112446000005,55.132101029999944,703.3033846000003,53.18317103000004L711.1998646000002,45.04841103000001C705.0225846000003,39.031551029999946,697.3734846000002,34.734611029999996,689.0144146000002,32.5856610300001ZZM629.1140246,93.41183103000003L629.1140246,93.41183103000003ZC629.1183246,93.50053103000005,629.1454246000003,93.58430103,629.1668246000004,93.65415102999998C629.1490246000003,93.57345103,629.1314246000002,93.49274103000005,629.1140246,93.41183103000003ZZM675.9323846000002,47.105191030000015C677.1490146000001,47.07629102999999,678.3678946,47.11419103000003,679.5808145999999,47.218471030000046L679.5848146000003,47.218471030000046L679.9812946000002,47.255571030000056L680.3133246000002,47.29067103L680.0477046000001,49.85317103L679.7273946,49.81997103000003L679.3602046000001,49.786771029999954C677.1222946000003,49.59438103000002,674.8612846000001,49.64618102999998,672.6355946000003,49.94497103000003L672.2937946000002,47.39028102999998C673.5006446000002,47.22827102999997,674.7158245999999,47.13406103,675.9323846000002,47.105191030000015ZZM688.1374546000002,49.1169110300001C690.5294146000001,49.99199103000012,692.8141746000001,51.14804103000006,694.9401946000003,52.54464103000009L694.9441946000002,52.54464103000009L695.2801346000001,52.76925103000008L693.8504446000002,54.913781029999996L693.5262246000002,54.698941030000015C691.5639446,53.40989103000004,689.4530245999999,52.34443103000001,687.2508346,51.538781029999996ZM664.5222246000003,49.40206103000003L665.4655846,51.80245103000004L665.2605046000003,51.88255103000006L664.9187046000002,52.023181030000046C662.8150246,52.895341030000054,660.8053746,54.00108103000002,658.9499546000002,55.31810103000009L657.4577746,53.216531030000056C659.4727546000004,51.78627103000008,661.6479546,50.58585103000007,663.9284746000003,49.64036103000012L663.9324746000002,49.638361030000056L664.3016146,49.48992103000012ZM701.3562046000002,58.02120103000004C703.1601846000003,60.0077610300001,704.7204846,62.21505103000004,705.9909746000003,64.57980103000011L703.7194846000002,65.80050103000008C702.5493046000001,63.622421030000055,701.1107846,61.58861103000015,699.4480046000003,59.75753103000011ZM651.5241746000002,58.6169110300001L653.4733946000001,60.3044110300001C652.9354045999999,60.92671103000009,652.4210846000001,61.57283103000009,651.9323846000002,62.23995103000004C650.9879845999999,63.53067103000012,650.1443846000002,64.8917210300001,649.4128446,66.31027103000008L647.1198846000002,65.12862103000009C647.9143445999998,63.588031030000025,648.8307746,62.11459103000004,649.8523046,60.718471030000046L651.9323846000002,62.23995103000004L649.8542545999999,60.716511030000106C650.3813146000002,59.99705103000008,650.9380446,59.295001030000094,651.5241746000002,58.6169110300001ZZM676.6980046000003,59.8981610300001C678.7853646000003,68.13245103000008,682.6199446,72.54949103000001,687.5983946000001,79.15011103000006C695.6047446000002,89.76521103000005,685.1997946000001,96.4658810300001,679.1413646000001,90.44503103000011C679.1413646000001,90.44503103000011,679.5490646000003,97.77759103000005,682.8073846000002,100.62862103000009L676.6980046000003,100.62862103000009L670.5886246,100.62862103000009C673.8469446000004,97.77759103000005,674.2546446000001,90.44503103000011,674.2546446000001,90.44503103000011C668.1962046000003,96.4658810300001,657.7912746000002,89.76521103000005,665.7976146000001,79.15011103000006C670.7760646000002,72.54949103000013,674.6106446000003,68.13245103000008,676.6980046000003,59.8981610300001ZZM708.9128446,72.0544110300001C709.5191245999999,74.40546103000008,709.8667346000002,76.82230103000006,709.9499546000002,79.24777103000008L709.9499546000002,79.2517710300001L709.9599546,79.64630103000002L709.9659546000003,80.00568103L707.3897846,80.04868103000001L707.3837846000001,79.70493103000001L707.3720846000001,79.33579103L707.3740846000001,79.32979103000002C707.2968845999999,77.09370103000003,706.9755046,74.86453103000008,706.4170546,72.69893103000004ZM644.3269146000002,72.65597103000005L646.8366746000002,73.25167103000013C646.2639546,75.65746103000015,645.9860446000002,78.13509103000013,646.0085546,80.60909103000006L643.4304246000002,80.63449103000005C643.4060246000004,77.95196103000012,643.7053546000002,75.26692103000005,644.3269146000002,72.65597103000005ZZM706.5788646000001,87.40206103000003L709.0905846,87.9919110300001C708.4943046000003,90.53268103000005,707.5931746000001,92.99896103000003,706.4167546000003,95.32784103000006L706.4167546000003,95.33184103000008L706.3151946000003,95.52715103000014L704.0222246000003,94.34942103000014L704.1159246000002,94.16582103000007C704.1169246000004,94.16382103000012,704.1169246000004,94.16182103000006,704.1179246000002,94.1598210300001L704.1199246000001,94.15782103000015C705.2024546000002,92.01335103000008,706.0301846000002,89.74009103000014,706.5788646000001,87.40206103000003ZZM646.9636246,87.95675103000008C647.5740046000001,90.35480103000009,648.4744246,92.68036103000009,649.6413646000001,94.86105103L647.3659746000003,96.07784103000006C646.0997345999999,93.71161103000009,645.1252546000001,91.19287102999999,644.4636246,88.59347103000005ZM699.8718346,100.48800103000008L701.8230046000003,102.17355103C700.1464046000001,104.11207103000004,698.2430546,105.85366103000001,696.1648046,107.35323103000007L696.1608046000001,107.35523103000003L695.8756446000002,107.5603110300001L694.3795546000001,105.46070103000011L694.6568946000002,105.26148103000003C696.5724046,103.87934103000009,698.3266946000003,102.27446103000011,699.8718346,100.48800103000008ZZM653.9011246,100.92159103000006L653.9011246,100.92159103000006ZC655.5951946,102.78687103000004,657.4626046000003,104.40051103000008,659.4909446000001,105.77507103000005L658.0436746,107.90788103L658.0436746,107.90988103000007C655.8471546000001,106.42135102999998,653.8249246,104.67346103,652.0397745999999,102.70676103000005L652.0377745999999,102.70276103000003L651.9830746000002,102.64026103000003ZM687.8601146000001,108.95675103000008L688.7976146000001,111.35909103000006C686.2975145999999,112.33335103000002,683.6795545999998,113.00285102999999,681.0202746,113.35128103L680.6862845999999,110.79659103000006C683.1400446000002,110.47508103000007,685.5552446000002,109.85493102999999,687.8601146000001,108.95675103000008ZZM666.0730045999999,109.16573103000007C668.3922046000002,110.02353103000007,670.8195645999999,110.5961510300001,673.2780846,110.86886103000006L672.9929246000002,113.43136103000006C670.3260346000002,113.13553103000004,667.6979946000001,112.51488103000008,665.1804246000002,111.58370103000004Z" style="stroke: none; stroke-opacity: 1; fill: rgb(216, 71, 18); fill-opacity: 1;"/></g><g id="strokes-f858bc74-8ee6-11ec-8798-cfdad16c8e40"><g class="stroke-shape"><path rx="0" ry="0" d="M689.0144146000002,32.5856610300001L686.1706646000002,43.58956103000003L686.0573846000002,43.558361030000015C683.2160946000004,42.84172103000003,680.2857246000003,42.45723103,677.3581646000002,42.41578103000006L677.3561646000003,42.413781029999996L677.3541646000003,42.413781029999996C673.7285946000002,42.36098103000006,670.0810646000004,42.838751030000026,666.5768246000002,43.81612102999998L663.5201846000004,32.85714102999998C655.2021846000002,35.186321030000045,647.6415446000001,39.651181029999975,641.5924446000004,45.80636103000006L649.6666646000003,53.757531029999996C646.9910246000004,56.47439102999999,644.7200146000005,59.60810103000006,642.9674446000004,62.999721030000046C641.6836846000001,65.48370103000002,640.6731846000002,68.11077103000002,639.9674446000004,70.80636103000006L628.9654946000005,67.92550103000008C627.8806346000001,71.97172103000003,627.3168446000004,76.13939103000007,627.2877546000004,80.32784103000006C627.3055546000005,84.75117103000002,627.9198446000005,89.15199102999998,629.1139346000004,93.41183103000003L640.0983046000006,90.40597103000005C640.8779246000004,93.25244103,641.9916246000003,96.01180103000002,643.4088546000003,98.59542103000001C645.1624646000005,101.79386103000002,647.3950846000002,104.74464103000003,649.9967446000005,107.30245103000004L642.0885346000005,115.34542103000001C648.2238046000002,121.3961810300001,655.8395646000004,125.73870103000002,664.1783846000003,127.94112103000009L667.0572946000002,117.00362103000009C670.6143546000003,117.93994103000011,674.3208346000006,118.35355103000006,677.9967446000005,118.22237103000009L677.9987446000005,118.22037103000002C680.9190946000003,118.11697103000006,683.8363046000004,117.67291103000002,686.6628046000001,116.90396103L689.6413246000002,127.84928103000004C697.9625746000002,125.56630102999998,705.5395046000003,121.14821102999997,711.6178846000003,115.03482102999999L703.6393746000003,107.06998103000001C705.3183446000003,105.38813103000007,706.8404846000003,103.54154103000008,708.1803846000003,101.56803103000004C710.5558546000002,98.06978103000006,712.3500246000003,94.16137103000005,713.4460146000001,90.08561103L724.3678846000003,93.02115103000006C725.4986846000002,88.88356103000001,726.0837046000001,84.61643103000006,726.1081246000003,80.32779103000007C726.1031246000002,75.80099103000009,725.4735646000004,71.2964410300001,724.2370246,66.94107102999999L713.3171046000002,70.01725103000001C713.1848946,69.54778103000001,713.0431346,69.08069103000003,712.8932746,68.61686103L712.8932746,68.61486103000004C711.8741246000004,65.45803103000003,710.4356646000001,62.433381029999964,708.6315546000001,59.65978102999998L708.6295546000001,59.65978102999998L708.6295546000001,59.657781030000024C707.1039246000005,57.310931030000006,705.3112446000005,55.132101029999944,703.3033846000003,53.18317103000004L711.1998646000002,45.04841103000001C705.0225846000003,39.031551029999946,697.3734846000002,34.734611029999996,689.0144146000002,32.5856610300001ZZM629.1140246,93.41183103000003L629.1140246,93.41183103000003ZC629.1183246,93.50053103000005,629.1454246000003,93.58430103,629.1668246000004,93.65415102999998C629.1490246000003,93.57345103,629.1314246000002,93.49274103000005,629.1140246,93.41183103000003ZZM675.9323846000002,47.105191030000015C677.1490146000001,47.07629102999999,678.3678946,47.11419103000003,679.5808145999999,47.218471030000046L679.5848146000003,47.218471030000046L679.9812946000002,47.255571030000056L680.3133246000002,47.29067103L680.0477046000001,49.85317103L679.7273946,49.81997103000003L679.3602046000001,49.786771029999954C677.1222946000003,49.59438103000002,674.8612846000001,49.64618102999998,672.6355946000003,49.94497103000003L672.2937946000002,47.39028102999998C673.5006446000002,47.22827102999997,674.7158245999999,47.13406103,675.9323846000002,47.105191030000015ZZM688.1374546000002,49.1169110300001C690.5294146000001,49.99199103000012,692.8141746000001,51.14804103000006,694.9401946000003,52.54464103000009L694.9441946000002,52.54464103000009L695.2801346000001,52.76925103000008L693.8504446000002,54.913781029999996L693.5262246000002,54.698941030000015C691.5639446,53.40989103000004,689.4530245999999,52.34443103000001,687.2508346,51.538781029999996ZM664.5222246000003,49.40206103000003L665.4655846,51.80245103000004L665.2605046000003,51.88255103000006L664.9187046000002,52.023181030000046C662.8150246,52.895341030000054,660.8053746,54.00108103000002,658.9499546000002,55.31810103000009L657.4577746,53.216531030000056C659.4727546000004,51.78627103000008,661.6479546,50.58585103000007,663.9284746000003,49.64036103000012L663.9324746000002,49.638361030000056L664.3016146,49.48992103000012ZM701.3562046000002,58.02120103000004C703.1601846000003,60.0077610300001,704.7204846,62.21505103000004,705.9909746000003,64.57980103000011L703.7194846000002,65.80050103000008C702.5493046000001,63.622421030000055,701.1107846,61.58861103000015,699.4480046000003,59.75753103000011ZM651.5241746000002,58.6169110300001L653.4733946000001,60.3044110300001C652.9354045999999,60.92671103000009,652.4210846000001,61.57283103000009,651.9323846000002,62.23995103000004C650.9879845999999,63.53067103000012,650.1443846000002,64.8917210300001,649.4128446,66.31027103000008L647.1198846000002,65.12862103000009C647.9143445999998,63.588031030000025,648.8307746,62.11459103000004,649.8523046,60.718471030000046L651.9323846000002,62.23995103000004L649.8542545999999,60.716511030000106C650.3813146000002,59.99705103000008,650.9380446,59.295001030000094,651.5241746000002,58.6169110300001ZZM676.6980046000003,59.8981610300001C678.7853646000003,68.13245103000008,682.6199446,72.54949103000001,687.5983946000001,79.15011103000006C695.6047446000002,89.76521103000005,685.1997946000001,96.4658810300001,679.1413646000001,90.44503103000011C679.1413646000001,90.44503103000011,679.5490646000003,97.77759103000005,682.8073846000002,100.62862103000009L676.6980046000003,100.62862103000009L670.5886246,100.62862103000009C673.8469446000004,97.77759103000005,674.2546446000001,90.44503103000011,674.2546446000001,90.44503103000011C668.1962046000003,96.4658810300001,657.7912746000002,89.76521103000005,665.7976146000001,79.15011103000006C670.7760646000002,72.54949103000013,674.6106446000003,68.13245103000008,676.6980046000003,59.8981610300001ZZM708.9128446,72.0544110300001C709.5191245999999,74.40546103000008,709.8667346000002,76.82230103000006,709.9499546000002,79.24777103000008L709.9499546000002,79.2517710300001L709.9599546,79.64630103000002L709.9659546000003,80.00568103L707.3897846,80.04868103000001L707.3837846000001,79.70493103000001L707.3720846000001,79.33579103L707.3740846000001,79.32979103000002C707.2968845999999,77.09370103000003,706.9755046,74.86453103000008,706.4170546,72.69893103000004ZM644.3269146000002,72.65597103000005L646.8366746000002,73.25167103000013C646.2639546,75.65746103000015,645.9860446000002,78.13509103000013,646.0085546,80.60909103000006L643.4304246000002,80.63449103000005C643.4060246000004,77.95196103000012,643.7053546000002,75.26692103000005,644.3269146000002,72.65597103000005ZZM706.5788646000001,87.40206103000003L709.0905846,87.9919110300001C708.4943046000003,90.53268103000005,707.5931746000001,92.99896103000003,706.4167546000003,95.32784103000006L706.4167546000003,95.33184103000008L706.3151946000003,95.52715103000014L704.0222246000003,94.34942103000014L704.1159246000002,94.16582103000007C704.1169246000004,94.16382103000012,704.1169246000004,94.16182103000006,704.1179246000002,94.1598210300001L704.1199246000001,94.15782103000015C705.2024546000002,92.01335103000008,706.0301846000002,89.74009103000014,706.5788646000001,87.40206103000003ZZM646.9636246,87.95675103000008C647.5740046000001,90.35480103000009,648.4744246,92.68036103000009,649.6413646000001,94.86105103L647.3659746000003,96.07784103000006C646.0997345999999,93.71161103000009,645.1252546000001,91.19287102999999,644.4636246,88.59347103000005ZM699.8718346,100.48800103000008L701.8230046000003,102.17355103C700.1464046000001,104.11207103000004,698.2430546,105.85366103000001,696.1648046,107.35323103000007L696.1608046000001,107.35523103000003L695.8756446000002,107.5603110300001L694.3795546000001,105.46070103000011L694.6568946000002,105.26148103000003C696.5724046,103.87934103000009,698.3266946000003,102.27446103000011,699.8718346,100.48800103000008ZZM653.9011246,100.92159103000006L653.9011246,100.92159103000006ZC655.5951946,102.78687103000004,657.4626046000003,104.40051103000008,659.4909446000001,105.77507103000005L658.0436746,107.90788103L658.0436746,107.90988103000007C655.8471546000001,106.42135102999998,653.8249246,104.67346103,652.0397745999999,102.70676103000005L652.0377745999999,102.70276103000003L651.9830746000002,102.64026103000003ZM687.8601146000001,108.95675103000008L688.7976146000001,111.35909103000006C686.2975145999999,112.33335103000002,683.6795545999998,113.00285102999999,681.0202746,113.35128103L680.6862845999999,110.79659103000006C683.1400446000002,110.47508103000007,685.5552446000002,109.85493102999999,687.8601146000001,108.95675103000008ZZM666.0730045999999,109.16573103000007C668.3922046000002,110.02353103000007,670.8195645999999,110.5961510300001,673.2780846,110.86886103000006L672.9929246000002,113.43136103000006C670.3260346000002,113.13553103000004,667.6979946000001,112.51488103000008,665.1804246000002,111.58370103000004Z" style="stroke: none; stroke-opacity: 1; fill: none; stroke-width: 0.822641;"/></g></g></g></g></g><g id="shape-f858bc75-8ee6-11ec-8798-cfdad16c8e40" rx="0" ry="0" style="display: inline; fill: rgb(0, 0, 0);"><g id="shape-f858bc76-8ee6-11ec-8798-cfdad16c8e40" rx="0" ry="0" style="display: inline; fill: rgb(0, 0, 0);"><g id="shape-f858bc77-8ee6-11ec-8798-cfdad16c8e40"><g id="fills-f858bc77-8ee6-11ec-8798-cfdad16c8e40"><ellipse rx="49.5" ry="49.5" cx="786.192254" cy="80.44505228469757" transform="matrix(1,0,0,1,0,0)" style="display: inline; stroke: none; stroke-opacity: 1; fill: rgb(255, 255, 255); fill-opacity: 1;"/></g><g id="strokes-f858bc77-8ee6-11ec-8798-cfdad16c8e40"><g class="stroke-shape"><ellipse rx="49.5" ry="49.5" cx="786.192254" cy="80.44505228469757" transform="matrix(1,0,0,1,0,0)" style="display: inline; stroke: none; stroke-opacity: 1; fill: none; stroke-width: 0.822641;"/></g></g></g><g id="shape-f858bc78-8ee6-11ec-8798-cfdad16c8e40"><g id="fills-f858bc78-8ee6-11ec-8798-cfdad16c8e40"><path rx="0" ry="0" d="M798.2976269999999,32.44504104000009L795.4538769999999,43.44894104000002L795.3405969999999,43.41774104000001C792.499307,42.701101040000026,789.568937,42.31661104,786.6413769999999,42.27516104000006L786.639377,42.27316103999999L786.637377,42.27316103999999C783.0118070000003,42.22036104000006,779.3642770000001,42.69813104000002,775.8600370000004,43.67550103999997L772.8033970000001,32.716521039999975C764.4853970000004,35.04570104000004,756.9247570000002,39.51056103999997,750.875657,45.66574104000006L758.949877,53.61691103999999C756.2742370000001,56.33377103999999,754.0032270000002,59.46748104000005,752.250657,62.85910104000004C750.9668970000002,65.34308104000002,749.9563970000004,67.97015104000002,749.250657,70.66574104000006L738.2487070000002,67.78488104000007C737.1638470000003,71.83110104000002,736.6000570000001,75.99877104000007,736.5709670000001,80.18722104000005C736.5887670000002,84.61055104000002,737.2030570000002,89.01137103999997,738.3971470000001,93.27121104000003L749.3815170000003,90.26535104000004C750.1611370000005,93.11182104,751.2748370000004,95.87118104000001,752.6920670000004,98.45480104C754.4456770000002,101.65324104000001,756.6782970000004,104.60402104000002,759.2799570000002,107.16183104000004L751.3717470000001,115.20480104C757.5070170000004,121.25556104000009,765.1227770000005,125.59808104000001,773.4615970000004,127.80050104000009L776.3405070000003,116.86300104000009C779.8975670000004,117.79932104000011,783.6040470000003,118.21293104000006,787.2799570000002,118.08175104000009L787.2819570000001,118.07975104000002C790.202307,117.97635104000005,793.1195170000001,117.53229104000002,795.9460170000002,116.76334104L798.9245370000003,127.70866104000004C807.2457870000003,125.42568103999997,814.822717,121.00759103999997,820.9010969999999,114.89420103999998L812.922587,106.92936104C814.601557,105.24751104000006,816.123697,103.40092104000007,817.4635969999999,101.42741104000004C819.8390669999999,97.92916104000005,821.633237,94.02075104000005,822.7292270000003,89.94499103999999L833.6510969999999,92.88053104000005C834.7818970000003,88.74294104,835.3669170000003,84.47581104000005,835.391337,80.18717104000007C835.3863369999999,75.66037104000009,834.756777,71.15582104000009,833.5202370000002,66.80045103999998L822.6003169999999,69.87663104C822.4681070000001,69.40716104,822.3263470000002,68.94007104000002,822.1764870000002,68.47624103999999L822.1764870000002,68.47424104000004C821.1573370000001,65.31741104000002,819.7188770000002,62.29276103999996,817.9147670000002,59.51916103999997L817.9127670000003,59.51916103999997L817.9127670000003,59.51716104000002C816.3871370000002,57.17031104,814.5944570000001,54.99148103999994,812.586597,53.042551040000035L820.4830770000003,44.907791040000006C814.305797,38.89093103999994,806.6566970000003,34.59399103999999,798.2976269999999,32.44504104000009ZZM738.3972370000001,93.27121104000003L738.3972370000001,93.27121104000003ZC738.4015370000002,93.35991104000004,738.428637,93.44368104,738.4500370000001,93.51353103999998C738.432237,93.43283104,738.4146370000003,93.35212104000004,738.3972370000001,93.27121104000003ZZM785.2155969999999,46.96457104000001C786.4322270000002,46.93567103999999,787.6511070000001,46.973571040000024,788.8640270000001,47.07785104000004L788.868027,47.07785104000004L789.2645069999999,47.11495104000005L789.5965369999999,47.150051039999994L789.3309170000002,49.712551039999994L789.0106070000002,49.67935104000003L788.6434170000002,49.64615103999995C786.405507,49.45376104000002,784.1444970000002,49.505561039999975,781.918807,49.80435104000003L781.5770069999999,47.24966103999998C782.7838569999999,47.08765103999997,783.999037,46.99344103999999,785.2155969999999,46.96457104000001ZZM797.4206669999999,48.97629104000009C799.8126270000002,49.85137104000012,802.0973870000003,51.007421040000054,804.223407,52.40402104000009L804.2274069999999,52.40402104000009L804.5633470000002,52.62863104000007L803.1336569999999,54.77316103999999L802.8094369999999,54.55832104000001C800.8471570000002,53.269271040000035,798.7362370000001,52.203811040000005,796.5340470000001,51.39816103999999ZM773.805437,49.26144104000002L774.7487970000002,51.66183104000004L774.543717,51.741931040000054L774.2019169999999,51.88256104000004C772.0982370000002,52.75472104000005,770.0885870000002,53.86046104000002,768.2331669999999,55.17748104000009L766.7409870000001,53.07591104000005C768.755967,51.645651040000075,770.9311670000002,50.44523104000007,773.211687,49.49974104000012L773.2156869999999,49.49774104000005L773.5848270000001,49.349301040000114ZM810.6394169999999,57.88058104000004C812.443397,59.86714104000009,814.0036970000001,62.074431040000036,815.274187,64.43918104000011L813.0026969999999,65.65988104000007C811.8325170000003,63.48180104000005,810.3939970000001,61.44799104000015,808.731217,59.616911040000105ZM760.8073869999998,58.47629104000009L762.7566069999998,60.16379104000009C762.218617,60.78609104000009,761.7042969999998,61.432211040000084,761.2155969999999,62.09933104000004C760.271197,63.39005104000012,759.4275969999999,64.7511010400001,758.6960570000001,66.16965104000008L756.4030969999999,64.98800104000009C757.197557,63.44741104000002,758.1139869999997,61.97397104000004,759.1355170000002,60.57785104000004L761.2155969999999,62.09933104000004L759.137467,60.5758910400001C759.6645269999999,59.856431040000075,760.2212570000002,59.15438104000009,760.8073869999998,58.47629104000009ZZM785.981217,59.75754104000009C788.068577,67.99183104000008,791.9031570000002,72.40887104000001,796.8816070000003,79.00949104000006C804.8879569999999,89.62459104000004,794.4830070000003,96.3252610400001,788.4245770000002,90.3044110400001C788.4245770000002,90.3044110400001,788.832277,97.63697104000005,792.0905969999999,100.48800104000009L785.981217,100.48800104000009L779.8718370000001,100.48800104000009C783.130157,97.63697104000005,783.5378570000003,90.3044110400001,783.5378570000003,90.3044110400001C777.479417,96.3252610400001,767.0744869999999,89.62459104000004,775.0808270000002,79.00949104000006C780.0592769999998,72.40887104000012,783.893857,67.99183104000008,785.981217,59.75754104000009ZZM818.1960570000001,71.91379104000009C818.8023370000001,74.26484104000008,819.1499469999999,76.68168104000006,819.2331669999999,79.10715104000008L819.2331669999999,79.1111510400001L819.2431670000001,79.50568104000001L819.2491669999999,79.86506104L816.6729970000001,79.90806104L816.6669969999998,79.56431104L816.6552969999998,79.19517103999999L816.6572969999997,79.18917104000002C816.580097,76.95308104000003,816.2587169999997,74.72391104000008,815.7002669999997,72.55831104000004ZM753.6101269999999,72.51535104000004L756.1198870000003,73.11105104000012C755.5471670000002,75.51684104000014,755.2692569999999,77.99447104000012,755.2917670000002,80.46847104000005L752.7136370000003,80.49387104000004C752.689237,77.81134104000012,752.9885670000003,75.12630104000004,753.6101269999999,72.51535104000004ZZM815.8620770000002,87.26144104000002L818.3737970000002,87.85129104000009C817.777517,90.39206104000004,816.8763870000002,92.85834104000003,815.699967,95.18722104000005L815.699967,95.19122104000007L815.598407,95.38653104000014L813.305437,94.20880104000014L813.3991370000003,94.02520104000007C813.4001370000001,94.02320104000012,813.4001370000001,94.02120104000005,813.4011370000003,94.0192010400001L813.4031370000002,94.01720104000015C814.4856669999999,91.87273104000008,815.3133969999999,89.59947104000014,815.8620770000002,87.26144104000002ZZM756.2468370000001,87.81613104000007C756.8572170000002,90.21418104000008,757.7576370000002,92.53974104000008,758.9245770000002,94.72043104L756.649187,95.93722104000005C755.3829470000001,93.57099104000008,754.4084670000002,91.05225103999999,753.7468370000001,88.45285104000004ZM809.1550470000002,100.34738104000007L811.106217,102.03293104C809.4296170000002,103.97145104000003,807.5262670000002,105.71304104000001,805.4480170000002,107.21261104000007L805.4440170000003,107.21461104000002L805.1588569999999,107.41969104000009L803.6627670000003,105.3200810400001L803.9401069999999,105.12086104000002C805.8556170000002,103.73872104000009,807.609907,102.1338410400001,809.1550470000002,100.34738104000007ZZM763.1843370000001,100.78097104000005L763.1843370000001,100.78097104000005ZC764.8784070000002,102.64625104000004,766.745817,104.25989104000007,768.7741569999998,105.63445104000004L767.3268870000002,107.76726104L767.3268870000002,107.76926104000006C765.1303670000002,106.28073103999998,763.1081370000002,104.53284104,761.322987,102.56614104000005L761.3209870000001,102.56214104000003L761.2662869999999,102.49964104000003ZM797.1433269999998,108.81613104000007L798.0808269999998,111.21847104000005C795.580727,112.19273104000001,792.962767,112.86223103999998,790.3034870000001,113.21066103999999L789.969497,110.65597104000005C792.4232569999999,110.33446104000006,794.8384569999998,109.71431103999998,797.1433269999998,108.81613104000007ZZM775.356217,109.02511104000007C777.6754169999999,109.88291104000007,780.1027770000001,110.4555310400001,782.5612969999997,110.72824104000006L782.2761369999998,113.29074104000006C779.6092469999999,112.99491104000003,776.9812069999998,112.37426104000008,774.4636369999998,111.44308104000004Z" style="stroke: none; stroke-opacity: 1; fill: rgb(216, 71, 18); fill-opacity: 1;"/></g><g id="strokes-f858bc78-8ee6-11ec-8798-cfdad16c8e40"><g class="stroke-shape"><path rx="0" ry="0" d="M798.2976269999999,32.44504104000009L795.4538769999999,43.44894104000002L795.3405969999999,43.41774104000001C792.499307,42.701101040000026,789.568937,42.31661104,786.6413769999999,42.27516104000006L786.639377,42.27316103999999L786.637377,42.27316103999999C783.0118070000003,42.22036104000006,779.3642770000001,42.69813104000002,775.8600370000004,43.67550103999997L772.8033970000001,32.716521039999975C764.4853970000004,35.04570104000004,756.9247570000002,39.51056103999997,750.875657,45.66574104000006L758.949877,53.61691103999999C756.2742370000001,56.33377103999999,754.0032270000002,59.46748104000005,752.250657,62.85910104000004C750.9668970000002,65.34308104000002,749.9563970000004,67.97015104000002,749.250657,70.66574104000006L738.2487070000002,67.78488104000007C737.1638470000003,71.83110104000002,736.6000570000001,75.99877104000007,736.5709670000001,80.18722104000005C736.5887670000002,84.61055104000002,737.2030570000002,89.01137103999997,738.3971470000001,93.27121104000003L749.3815170000003,90.26535104000004C750.1611370000005,93.11182104,751.2748370000004,95.87118104000001,752.6920670000004,98.45480104C754.4456770000002,101.65324104000001,756.6782970000004,104.60402104000002,759.2799570000002,107.16183104000004L751.3717470000001,115.20480104C757.5070170000004,121.25556104000009,765.1227770000005,125.59808104000001,773.4615970000004,127.80050104000009L776.3405070000003,116.86300104000009C779.8975670000004,117.79932104000011,783.6040470000003,118.21293104000006,787.2799570000002,118.08175104000009L787.2819570000001,118.07975104000002C790.202307,117.97635104000005,793.1195170000001,117.53229104000002,795.9460170000002,116.76334104L798.9245370000003,127.70866104000004C807.2457870000003,125.42568103999997,814.822717,121.00759103999997,820.9010969999999,114.89420103999998L812.922587,106.92936104C814.601557,105.24751104000006,816.123697,103.40092104000007,817.4635969999999,101.42741104000004C819.8390669999999,97.92916104000005,821.633237,94.02075104000005,822.7292270000003,89.94499103999999L833.6510969999999,92.88053104000005C834.7818970000003,88.74294104,835.3669170000003,84.47581104000005,835.391337,80.18717104000007C835.3863369999999,75.66037104000009,834.756777,71.15582104000009,833.5202370000002,66.80045103999998L822.6003169999999,69.87663104C822.4681070000001,69.40716104,822.3263470000002,68.94007104000002,822.1764870000002,68.47624103999999L822.1764870000002,68.47424104000004C821.1573370000001,65.31741104000002,819.7188770000002,62.29276103999996,817.9147670000002,59.51916103999997L817.9127670000003,59.51916103999997L817.9127670000003,59.51716104000002C816.3871370000002,57.17031104,814.5944570000001,54.99148103999994,812.586597,53.042551040000035L820.4830770000003,44.907791040000006C814.305797,38.89093103999994,806.6566970000003,34.59399103999999,798.2976269999999,32.44504104000009ZZM738.3972370000001,93.27121104000003L738.3972370000001,93.27121104000003ZC738.4015370000002,93.35991104000004,738.428637,93.44368104,738.4500370000001,93.51353103999998C738.432237,93.43283104,738.4146370000003,93.35212104000004,738.3972370000001,93.27121104000003ZZM785.2155969999999,46.96457104000001C786.4322270000002,46.93567103999999,787.6511070000001,46.973571040000024,788.8640270000001,47.07785104000004L788.868027,47.07785104000004L789.2645069999999,47.11495104000005L789.5965369999999,47.150051039999994L789.3309170000002,49.712551039999994L789.0106070000002,49.67935104000003L788.6434170000002,49.64615103999995C786.405507,49.45376104000002,784.1444970000002,49.505561039999975,781.918807,49.80435104000003L781.5770069999999,47.24966103999998C782.7838569999999,47.08765103999997,783.999037,46.99344103999999,785.2155969999999,46.96457104000001ZZM797.4206669999999,48.97629104000009C799.8126270000002,49.85137104000012,802.0973870000003,51.007421040000054,804.223407,52.40402104000009L804.2274069999999,52.40402104000009L804.5633470000002,52.62863104000007L803.1336569999999,54.77316103999999L802.8094369999999,54.55832104000001C800.8471570000002,53.269271040000035,798.7362370000001,52.203811040000005,796.5340470000001,51.39816103999999ZM773.805437,49.26144104000002L774.7487970000002,51.66183104000004L774.543717,51.741931040000054L774.2019169999999,51.88256104000004C772.0982370000002,52.75472104000005,770.0885870000002,53.86046104000002,768.2331669999999,55.17748104000009L766.7409870000001,53.07591104000005C768.755967,51.645651040000075,770.9311670000002,50.44523104000007,773.211687,49.49974104000012L773.2156869999999,49.49774104000005L773.5848270000001,49.349301040000114ZM810.6394169999999,57.88058104000004C812.443397,59.86714104000009,814.0036970000001,62.074431040000036,815.274187,64.43918104000011L813.0026969999999,65.65988104000007C811.8325170000003,63.48180104000005,810.3939970000001,61.44799104000015,808.731217,59.616911040000105ZM760.8073869999998,58.47629104000009L762.7566069999998,60.16379104000009C762.218617,60.78609104000009,761.7042969999998,61.432211040000084,761.2155969999999,62.09933104000004C760.271197,63.39005104000012,759.4275969999999,64.7511010400001,758.6960570000001,66.16965104000008L756.4030969999999,64.98800104000009C757.197557,63.44741104000002,758.1139869999997,61.97397104000004,759.1355170000002,60.57785104000004L761.2155969999999,62.09933104000004L759.137467,60.5758910400001C759.6645269999999,59.856431040000075,760.2212570000002,59.15438104000009,760.8073869999998,58.47629104000009ZZM785.981217,59.75754104000009C788.068577,67.99183104000008,791.9031570000002,72.40887104000001,796.8816070000003,79.00949104000006C804.8879569999999,89.62459104000004,794.4830070000003,96.3252610400001,788.4245770000002,90.3044110400001C788.4245770000002,90.3044110400001,788.832277,97.63697104000005,792.0905969999999,100.48800104000009L785.981217,100.48800104000009L779.8718370000001,100.48800104000009C783.130157,97.63697104000005,783.5378570000003,90.3044110400001,783.5378570000003,90.3044110400001C777.479417,96.3252610400001,767.0744869999999,89.62459104000004,775.0808270000002,79.00949104000006C780.0592769999998,72.40887104000012,783.893857,67.99183104000008,785.981217,59.75754104000009ZZM818.1960570000001,71.91379104000009C818.8023370000001,74.26484104000008,819.1499469999999,76.68168104000006,819.2331669999999,79.10715104000008L819.2331669999999,79.1111510400001L819.2431670000001,79.50568104000001L819.2491669999999,79.86506104L816.6729970000001,79.90806104L816.6669969999998,79.56431104L816.6552969999998,79.19517103999999L816.6572969999997,79.18917104000002C816.580097,76.95308104000003,816.2587169999997,74.72391104000008,815.7002669999997,72.55831104000004ZM753.6101269999999,72.51535104000004L756.1198870000003,73.11105104000012C755.5471670000002,75.51684104000014,755.2692569999999,77.99447104000012,755.2917670000002,80.46847104000005L752.7136370000003,80.49387104000004C752.689237,77.81134104000012,752.9885670000003,75.12630104000004,753.6101269999999,72.51535104000004ZZM815.8620770000002,87.26144104000002L818.3737970000002,87.85129104000009C817.777517,90.39206104000004,816.8763870000002,92.85834104000003,815.699967,95.18722104000005L815.699967,95.19122104000007L815.598407,95.38653104000014L813.305437,94.20880104000014L813.3991370000003,94.02520104000007C813.4001370000001,94.02320104000012,813.4001370000001,94.02120104000005,813.4011370000003,94.0192010400001L813.4031370000002,94.01720104000015C814.4856669999999,91.87273104000008,815.3133969999999,89.59947104000014,815.8620770000002,87.26144104000002ZZM756.2468370000001,87.81613104000007C756.8572170000002,90.21418104000008,757.7576370000002,92.53974104000008,758.9245770000002,94.72043104L756.649187,95.93722104000005C755.3829470000001,93.57099104000008,754.4084670000002,91.05225103999999,753.7468370000001,88.45285104000004ZM809.1550470000002,100.34738104000007L811.106217,102.03293104C809.4296170000002,103.97145104000003,807.5262670000002,105.71304104000001,805.4480170000002,107.21261104000007L805.4440170000003,107.21461104000002L805.1588569999999,107.41969104000009L803.6627670000003,105.3200810400001L803.9401069999999,105.12086104000002C805.8556170000002,103.73872104000009,807.609907,102.1338410400001,809.1550470000002,100.34738104000007ZZM763.1843370000001,100.78097104000005L763.1843370000001,100.78097104000005ZC764.8784070000002,102.64625104000004,766.745817,104.25989104000007,768.7741569999998,105.63445104000004L767.3268870000002,107.76726104L767.3268870000002,107.76926104000006C765.1303670000002,106.28073103999998,763.1081370000002,104.53284104,761.322987,102.56614104000005L761.3209870000001,102.56214104000003L761.2662869999999,102.49964104000003ZM797.1433269999998,108.81613104000007L798.0808269999998,111.21847104000005C795.580727,112.19273104000001,792.962767,112.86223103999998,790.3034870000001,113.21066103999999L789.969497,110.65597104000005C792.4232569999999,110.33446104000006,794.8384569999998,109.71431103999998,797.1433269999998,108.81613104000007ZZM775.356217,109.02511104000007C777.6754169999999,109.88291104000007,780.1027770000001,110.4555310400001,782.5612969999997,110.72824104000006L782.2761369999998,113.29074104000006C779.6092469999999,112.99491104000003,776.9812069999998,112.37426104000008,774.4636369999998,111.44308104000004Z" style="stroke: none; stroke-opacity: 1; fill: none; stroke-width: 0.822641;"/></g></g></g></g></g><g id="shape-f858e380-8ee6-11ec-8798-cfdad16c8e40" rx="0" ry="0" style="display: inline; fill: rgb(0, 0, 0);"><g id="shape-f858e381-8ee6-11ec-8798-cfdad16c8e40"><g id="fills-f858e381-8ee6-11ec-8798-cfdad16c8e40"><path rx="0" ry="0" d="M150.45701700000018,34.65140150000002C138.53424882477418,34.65118218564203,127.09972910495253,39.48027692869232,118.66896039173878,48.07632364978099C110.23819167852503,56.67237037086977,105.50179046568087,68.33121363071587,105.50172700000019,80.4880015C105.50179306701557,92.64478763748343,110.2381954283527,104.30362832819742,118.66896385978498,112.89967288630737C127.09973229121726,121.49571744441721,138.53425052482305,126.32481081455751,150.45701700079996,126.3245915C171.47298586575369,126.28337370317035,189.65642508988697,111.40118904245435,194.2419070000002,90.48897149999993C187.71466584058385,100.96809594846445,176.2587631671597,107.35586825879705,163.91311700000017,107.40020149999998C154.39637008915383,107.40020123478405,145.26940462136474,103.6196875533077,138.54004956485585,96.89033062143494C131.81069450834696,90.16097368956218,128.0301838174014,81.03400761519617,128.03018700000018,71.51726150000002C128.0863736357262,52.96161877289637,142.28042896293255,37.50944491993164,160.76459700000066,35.88137149999989C157.38682679626004,35.06702485618848,153.92792436091463,34.65428527731524,150.45701700000018,34.65140150000002ZZ" style="stroke-dasharray: 7.56219, 7.56219; stroke: none; stroke-opacity: 1; stroke-dashoffset: 5.04152; display: inline; stroke-miterlimit: 4; fill: rgb(230, 230, 230); fill-opacity: 1;"/></g><g id="strokes-f858e381-8ee6-11ec-8798-cfdad16c8e40"><g class="stroke-shape"><path rx="0" ry="0" d="M150.45701700000018,34.65140150000002C138.53424882477418,34.65118218564203,127.09972910495253,39.48027692869232,118.66896039173878,48.07632364978099C110.23819167852503,56.67237037086977,105.50179046568087,68.33121363071587,105.50172700000019,80.4880015C105.50179306701557,92.64478763748343,110.2381954283527,104.30362832819742,118.66896385978498,112.89967288630737C127.09973229121726,121.49571744441721,138.53425052482305,126.32481081455751,150.45701700079996,126.3245915C171.47298586575369,126.28337370317035,189.65642508988697,111.40118904245435,194.2419070000002,90.48897149999993C187.71466584058385,100.96809594846445,176.2587631671597,107.35586825879705,163.91311700000017,107.40020149999998C154.39637008915383,107.40020123478405,145.26940462136474,103.6196875533077,138.54004956485585,96.89033062143494C131.81069450834696,90.16097368956218,128.0301838174014,81.03400761519617,128.03018700000018,71.51726150000002C128.0863736357262,52.96161877289637,142.28042896293255,37.50944491993164,160.76459700000066,35.88137149999989C157.38682679626004,35.06702485618848,153.92792436091463,34.65428527731524,150.45701700000018,34.65140150000002ZZ" style="stroke-dasharray: 7.56219, 7.56219; stroke: none; stroke-opacity: 1; stroke-dashoffset: 5.04152; display: inline; stroke-miterlimit: 4; fill: none; stroke-width: 2.52073;"/></g></g></g></g></g></svg>